PathFileType	3	(X/Y/Z)	F:\ViconData\AntennenMessung\Messung1\Session1\ID02.trc
DataRate	CameraRate	NumFrames	NumMarkers	Units	OrigDataRate	OrigDataStartFrame	OrigNumFrames
120.0	120.0	4	70	mm	120.0	694	924	
Frame#	Time	Ashort			Along			Atop			A4			Bshort			Blong			Btop			B4			Cshort			Clong			Ctop			C4			Dshort			Dlong			Dtop			D4			Eshort			Elong			Etop			E4			Fshort			Flong			Ftop			F4			Gshort			Glong			Gtop			G4			Hshort			Hlong			Htop			H4			I1			I2			I3			I4			I5			WandAshort			WandAlong			WandAtop			WandA4			WandA15			WandBshort			WandB4			WandB5			WandBtop			WandBlong			WandCshort			WandClong			WandCtop			WandC4			WandC5			Acenter			Aantenna			Bcenter			Bantenna			Ccenter			Cantenna			Dcenter			Dantenna			Ecenter			Eantenna			Fcenter			Fantenna			Gcenter			Gantenna			Hcenter			Hantenna			Icenter			Iantenna			
		X1	Y1	Z1	X2	Y2	Z2	X3	Y3	Z3	X4	Y4	Z4	X5	Y5	Z5	X6	Y6	Z6	X7	Y7	Z7	X8	Y8	Z8	X9	Y9	Z9	X10	Y10	Z10	X11	Y11	Z11	X12	Y12	Z12	X13	Y13	Z13	X14	Y14	Z14	X15	Y15	Z15	X16	Y16	Z16	X17	Y17	Z17	X18	Y18	Z18	X19	Y19	Z19	X20	Y20	Z20	X21	Y21	Z21	X22	Y22	Z22	X23	Y23	Z23	X24	Y24	Z24	X25	Y25	Z25	X26	Y26	Z26	X27	Y27	Z27	X28	Y28	Z28	X29	Y29	Z29	X30	Y30	Z30	X31	Y31	Z31	X32	Y32	Z32	X33	Y33	Z33	X34	Y34	Z34	X35	Y35	Z35	X36	Y36	Z36	X37	Y37	Z37	X38	Y38	Z38	X39	Y39	Z39	X40	Y40	Z40	X41	Y41	Z41	X42	Y42	Z42	X43	Y43	Z43	X44	Y44	Z44	X45	Y45	Z45	X46	Y46	Z46	X47	Y47	Z47	X48	Y48	Z48	X49	Y49	Z49	X50	Y50	Z50	X51	Y51	Z51	X52	Y52	Z52	X53	Y53	Z53	X54	Y54	Z54	X55	Y55	Z55	X56	Y56	Z56	X57	Y57	Z57	X58	Y58	Z58	X59	Y59	Z59	X60	Y60	Z60	X61	Y61	Z61	X62	Y62	Z62	X63	Y63	Z63	X64	Y64	Z64	X65	Y65	Z65	X66	Y66	Z66	X67	Y67	Z67	X68	Y68	Z68	X69	Y69	Z69	X70	Y70	Z70	
694	5.775	-1038.2053	214.28943	-1644.2651	-1109.2653	203.35359	-1599.5522	-1063.6472	172.42886	-1625.314	-1054.0986	262.04556	-1634.9775	-1353.1111	234.92273	1003.9496	-1281.3595	227.23546	1052.3207	-1323.1089	194.15582	1020.812	-1284.5081	287.90442	1052.723	813.93231	187.60393	1209.4904	892.3584	178.46767	1179.2292	844.31891	145.47038	1198.1998	860.53455	292.29269	1167.219	1115.8005	209.74756	-1401.707	1056.3282	194.12683	-1460.1849	1094.9303	161.93037	-1423.5831	1069.875	238.64694	-1425.9456	-1204.4863	1685.9336	-1563.3224	-1129.1088	1688.2167	-1606.0715	-1173.094	1724.3751	-1581.9661	-1133.514	1581.0463	-1603.4261	-1239.6882	1699.2231	1119.2555	-1309.4561	1698.9268	1071.8085	-1270.3461	1736.1666	1096.6595	-1244.6278	1593.9845	1106.434	988.82953	1664.2406	1162.2814	957.53564	1700.2634	1183.6836	922.12842	1662.265	1214.8369	939.79211	1659.3279	1159.9084	999.23578	1668.5691	-1579.5073	1058.9092	1670.1556	-1518.6216	1025.0773	1708.011	-1551.1238	1059.2999	1672.1732	-1585.5481	-542.04993	1144.1088	-298.22388	-545.7608	1145.1718	-213.93326	-544.15118	1181.5591	-260.93137	-575.84406	1142.4836	-262.79489	-496.08893	1146.1858	-258.87329																																														-1069.0648	209.54024	-1624.8474	-1074.6981	248.1282	-1624.3622	-1321.9113	231.58005	1024.9829	-1320.6713	270.32047	1029.3005	848.04236	183.63025	1196.3287	851.82538	222.39977	1194.4277	1088.8138	202.65936	-1428.2423	1083.0588	240.98245	-1432.6263	-1171.8752	1686.9213	-1581.8173	-1170.6068	1647.9421	-1581.6625	-1271.0504	1699.0898	1097.927	-1271.7909	1660.1196	1099.259	952.89044	1705.6104	1186.8605	972.86407	1733.7544	1168.6954	1026.5898	1669.2963	-1551.5975	1028.1124	1630.3289	-1552.0743	-543.71307	1144.5851	-260.4458	-543.2511	1105.5913	-259.93372
695	5.7833333	-1038.2135	214.35349	-1644.2979	-1109.1681	203.14775	-1599.6372	-1063.5763	172.65454	-1625.5106	-1053.9833	261.95706	-1634.9896	-1353.0291	234.78078	1003.9777	-1281.264	227.1057	1052.3098	-1322.9889	194.20335	1020.7482	-1284.5496	287.90628	1052.7222	813.9184	187.66765	1209.4529	892.34302	178.44658	1179.2161	844.36115	145.52219	1198.2142	860.69751	292.4321	1167.2362	1115.7933	209.73724	-1401.7094	1056.2889	194.04921	-1460.1461	1094.9666	161.97046	-1423.673	1069.8975	238.621	-1425.9185	-1204.5596	1686.0052	-1563.1754	-1129.1012	1688.2175	-1606.0756	-1173.1044	1724.3713	-1581.9741	-1133.5172	1581.0673	-1603.4719	-1239.6415	1699.1438	1119.2272	-1309.3622	1698.7722	1071.7544	-1270.3226	1736.1332	1096.6526	-1244.6122	1593.8951	1106.4464	988.81885	1664.2169	1162.2671	957.45172	1700.3202	1183.6836	922.64215	1662.031	1214.7778	939.77148	1659.3672	1159.9075	999.23267	1668.5541	-1579.5145	1058.9115	1670.1647	-1518.6243	1025.0671	1708.0117	-1551.1277	1059.3077	1672.1907	-1585.5535	-542.04108	1144.0988	-298.22681	-545.75812	1145.1587	-213.93057	-544.15814	1181.5699	-260.92249	-575.75458	1142.5168	-262.7619	-496.08859	1146.183	-258.86737																																														-1069.0156	209.48895	-1624.9102	-1074.7122	248.06555	-1624.2812	-1321.8521	231.44647	1024.9746	-1320.6699	270.17996	1029.3701	848.0965	183.64902	1196.2754	851.89441	222.41357	1194.3041	1088.7572	202.60928	-1428.2604	1082.9031	240.92409	-1432.5852	-1171.8822	1686.9633	-1581.7534	-1170.6085	1647.9846	-1581.5233	-1270.9706	1698.9768	1097.895	-1271.6501	1660.0044	1099.1982	953.16321	1705.2562	1186.6117	973.02045	1733.3789	1168.2866	1026.5929	1669.2925	-1551.5988	1028.1284	1630.3256	-1552.073	-543.7074	1144.5739	-260.4375	-543.23224	1105.5801	-259.9263
696	5.7916667	-1038.2518	214.44743	-1644.2638	-1109.2975	203.36301	-1599.5458	-1063.6914	172.72368	-1625.4205	-1054.1527	262.05179	-1634.9657	-1352.99	234.85103	1003.9152	-1281.3383	227.00636	1052.426	-1323.0059	194.18587	1020.7523	-1284.6196	287.92902	1052.7928	813.95337	187.61539	1209.4468	892.24719	178.52481	1179.2118	844.67169	145.14343	1198.3202	860.55743	292.31091	1167.2441	1115.8088	209.73598	-1401.6945	1056.3239	194.07121	-1460.1375	1094.9686	162.0188	-1423.7423	1069.8596	238.62167	-1425.9692	-1204.5608	1686.0055	-1563.193	-1129.0878	1688.203	-1606.0725	-1173.124	1724.3002	-1581.8929	-1133.5022	1581.0538	-1603.4578	-1239.7013	1699.2379	1119.2571	-1309.4404	1698.9032	1071.804	-1270.3226	1736.1444	1096.6439	-1244.6326	1593.9396	1106.4344	988.83722	1664.2629	1162.2551	957.54004	1700.3458	1183.6746	922.53571	1662.1042	1214.832	939.77209	1659.3329	1159.843	999.23615	1668.55	-1579.49	1058.7688	1669.9945	-1518.6537	1025.0619	1708.0115	-1551.1359	1059.3054	1672.1901	-1585.5732	-542.05951	1144.1151	-298.2211	-545.74719	1145.1635	-213.91846	-544.16223	1181.5562	-260.91672	-575.84064	1142.4961	-262.7901	-496.08414	1146.1771	-258.88718																																														-1069.0924	209.63574	-1624.8519	-1074.7382	248.22035	-1624.2574	-1321.8169	231.4381	1025.0204	-1320.5809	270.16516	1029.4573	848.31262	183.62598	1196.1781	851.98053	222.39311	1194.0203	1088.7435	202.6086	-1428.2856	1082.8673	240.92407	-1432.5743	-1171.9414	1686.9551	-1581.7253	-1170.7072	1647.9751	-1581.5505	-1271.0276	1699.0875	1097.9414	-1271.7688	1660.1184	1099.3058	953.16522	1705.3895	1186.6686	973.06073	1733.5056	1168.375	1026.5034	1669.2115	-1551.6254	1027.9515	1630.2415	-1552.1171	-543.71228	1144.5848	-260.43726	-543.23773	1105.5911	-259.93158
697	5.8	-1038.2098	214.27478	-1644.2518	-1109.1755	203.17026	-1599.614	-1063.6699	172.62811	-1625.4724	-1054.1418	262.0488	-1634.9414	-1353.0708	234.79408	1003.959	-1281.2898	227.07327	1052.4347	-1323.126	194.15408	1020.8248	-1284.4951	287.88834	1052.7371	813.9234	187.62022	1209.4949	892.14185	178.45061	1179.2424	844.64215	145.18892	1198.2635	860.5434	292.33365	1167.3392	1115.8077	209.73427	-1401.7025	1056.3405	194.10632	-1460.1532	1095.0007	162.06773	-1423.7618	1069.8578	238.61382	-1425.9452	-1204.5533	1686.0116	-1563.1796	-1129.093	1688.2161	-1606.0643	-1173.0974	1724.3737	-1581.97	-1133.5305	1581.0605	-1603.4678	-1239.6681	1699.194	1119.2472	-1309.4283	1698.8959	1071.7997	-1270.3584	1736.1781	1096.6736	-1244.6465	1593.8029	1106.51	988.82538	1664.2277	1162.2831	957.49323	1700.2833	1183.6293	922.12115	1662.1887	1214.7638	939.77997	1659.3445	1159.9197	999.25684	1668.5531	-1579.493	1058.9066	1670.1532	-1518.6188	1025.0726	1708.0139	-1551.1287	1059.2996	1672.1932	-1585.5773	-542.05109	1144.1046	-298.2265	-545.76117	1145.1765	-213.91919	-544.15271	1181.5482	-260.92957	-575.8045	1142.444	-262.76587	-496.09314	1146.1589	-258.8501																																														-1069.0443	209.44984	-1624.8566	-1074.6763	248.03566	-1624.2113	-1321.9281	231.44435	1024.9906	-1320.6838	270.1835	1029.3181	848.33911	183.58563	1196.184	852.07147	222.34981	1194.0844	1088.7751	202.63011	-1428.2729	1082.894	240.94789	-1432.5345	-1171.8788	1686.9661	-1581.7488	-1170.6091	1647.9873	-1581.5184	-1271.0403	1699.0598	1097.9092	-1271.7563	1660.088	1099.2067	952.92206	1705.5435	1186.7437	972.9054	1733.6715	1168.5645	1026.5906	1669.2863	-1551.598	1028.118	1630.319	-1552.0706	-543.71393	1144.585	-260.44019	-543.25098	1105.5912	-259.92398
